<?xml version="1.0" standalone="no"?>
<!DOCTYPE svg PUBLIC "-//W3C//DTD SVG 20010904//EN"
 "http://www.w3.org/TR/2001/REC-SVG-20010904/DTD/svg10.dtd">
<svg version="1.0" xmlns="http://www.w3.org/2000/svg"
 width="488.000000pt" height="488.000000pt" viewBox="0 0 488.000000 488.000000"
 preserveAspectRatio="xMidYMid meet">
<metadata>
Created by potrace 1.11, written by Peter Selinger 2001-2013
</metadata>
<g transform="translate(0.000000,488.000000) scale(0.100000,-0.100000)"
fill="#000000" stroke="none">
<path d="M0 2440 l0 -2441 91 3 91 3 42 81 c67 126 124 214 138 214 12 0 81
55 129 101 53 53 112 84 209 112 133 39 140 43 138 89 -1 43 17 69 48 68 86
-3 122 -13 135 -36 15 -29 30 -27 47 8 22 47 157 79 157 38 0 -8 4 -21 9 -29
6 -9 5 -12 0 -8 -20 12 -35 -9 -25 -35 6 -17 6 -29 -1 -36 -8 -8 -8 -15 1 -26
10 -12 8 -16 -8 -21 -12 -3 -21 -11 -21 -16 0 -13 18 -11 23 4 4 9 6 9 6 0 1
-6 -4 -15 -9 -18 -5 -3 -10 -15 -10 -25 0 -10 -6 -20 -13 -23 -9 -3 -8 -8 3
-22 11 -13 12 -19 3 -22 -7 -2 -10 -10 -7 -18 3 -7 -4 -22 -16 -33 -16 -14
-18 -21 -8 -25 7 -2 14 -16 16 -30 1 -19 -2 -25 -13 -21 -11 5 -13 -1 -10 -27
2 -18 9 -35 15 -39 8 -5 8 -9 -2 -12 -8 -3 -15 -23 -16 -44 -2 -21 -8 -44 -14
-51 -10 -12 -4 -17 16 -14 4 1 -4 -19 -18 -44 l-27 -45 127 0 c111 0 125 2
114 15 -7 8 -19 15 -27 15 -8 0 -11 5 -8 11 5 7 14 6 28 -4 30 -19 77 -27 77
-13 0 6 5 4 10 -4 7 -12 39 -16 156 -18 103 -3 144 -1 140 7 -4 6 0 11 8 11 9
0 16 -4 16 -9 0 -5 54 -10 120 -10 76 -1 120 2 120 9 0 13 37 50 51 50 5 0 3
-10 -5 -22 -9 -12 -16 -26 -16 -30 0 -5 227 -8 504 -8 496 0 505 0 511 20 3
11 4 28 1 37 -2 10 -7 88 -11 173 -3 85 -8 182 -11 215 -2 33 -7 82 -9 109
-10 122 -17 356 -11 380 10 39 26 31 25 -12 0 -36 4 -123 15 -287 7 -107 19
-368 21 -480 4 -161 3 -155 25 -155 20 0 20 7 20 403 1 221 1 446 1 500 0 55
-1 100 -3 102 -11 9 -122 -25 -143 -45 l-25 -23 0 30 c0 49 47 83 116 83 49 0
54 2 60 26 4 14 5 104 2 200 -2 96 -1 174 2 174 11 0 11 78 0 85 -6 4 -7 12
-3 18 4 7 10 43 14 80 7 79 25 105 57 88 13 -7 24 -26 28 -48 6 -33 8 -35 20
-18 18 25 18 54 -2 100 -15 38 -12 71 5 60 6 -3 8 -12 4 -20 -7 -19 4 -65 16
-65 16 0 32 57 34 119 2 56 0 63 -30 93 -19 19 -44 33 -60 34 -16 1 -37 2 -48
3 -19 2 -20 3 -1 10 14 5 16 10 8 15 -7 4 -12 5 -12 2 0 -2 -14 -1 -30 4 -23
7 -30 5 -30 -5 0 -7 10 -15 23 -17 19 -3 16 -6 -18 -22 -22 -11 -43 -21 -47
-23 -4 -2 -5 2 -3 9 3 8 -4 24 -16 37 -22 23 -23 23 -36 5 -14 -18 -14 -18
-11 1 2 12 -3 20 -12 20 -8 0 -19 3 -25 6 -58 31 -162 -22 -185 -93 -8 -24
-20 -53 -28 -66 -11 -16 -13 -42 -10 -92 4 -48 2 -68 -6 -67 -6 1 -11 -8 -11
-20 -1 -22 -30 -52 -50 -52 -5 0 -1 6 10 15 15 11 20 27 20 59 1 39 -1 42 -17
34 -12 -6 -18 -6 -18 1 0 5 -8 10 -17 10 -16 -1 -16 -2 1 -11 11 -7 14 -14 8
-18 -7 -4 -5 -13 4 -26 15 -20 15 -20 12 0 -2 11 1 21 6 23 5 1 10 -9 11 -23
0 -17 -8 -31 -23 -41 -28 -19 -31 -16 -63 55 -29 64 -41 42 -45 -81 -5 -163
20 -241 99 -308 15 -13 16 -21 6 -55 -6 -22 -17 -47 -25 -55 -13 -13 -17 -12
-35 10 -23 30 -69 125 -69 144 0 7 -13 24 -29 37 -16 14 -31 31 -33 38 -2 8
-10 21 -18 30 -8 9 -24 28 -35 43 -26 34 -62 45 -68 21 -3 -10 -4 -4 -4 12 0
17 5 35 10 42 5 8 3 20 -6 33 -11 16 -16 18 -21 8 -3 -7 -4 -1 -1 15 4 19 1
29 -10 33 -8 3 -13 9 -10 13 6 11 -17 81 -27 81 -4 0 -8 7 -8 15 0 35 -113
214 -136 215 -16 0 -99 95 -117 133 -9 18 -19 73 -23 122 -4 50 -10 92 -15 95
-4 3 -10 28 -13 55 -4 28 -9 62 -12 77 -6 29 11 72 25 63 10 -6 23 23 16 35
-6 10 24 22 37 14 11 -7 0 107 -14 146 -7 19 -7 22 3 13 6 -6 20 -56 30 -112
30 -166 61 -207 186 -244 44 -12 73 -26 73 -34 0 -11 23 -13 118 -9 64 2 124
7 133 11 10 4 19 0 23 -10 3 -9 2 -14 -3 -11 -9 6 -26 -22 -23 -36 1 -5 -3 -8
-8 -8 -6 0 -10 -7 -10 -15 0 -8 -4 -15 -10 -15 -5 0 -12 -11 -16 -25 -3 -14
-10 -25 -15 -25 -5 0 -9 -9 -9 -20 0 -11 -5 -20 -11 -20 -6 0 -9 -7 -6 -15 4
-8 2 -17 -3 -20 -13 -8 -13 -36 0 -55 7 -12 20 -2 67 48 50 55 57 68 54 98 -3
40 34 124 55 124 9 0 14 11 14 30 0 22 12 44 43 78 23 26 60 68 80 95 35 43
42 47 81 47 48 0 58 -8 114 -90 39 -57 52 -85 71 -156 7 -27 20 -45 37 -55 47
-24 59 -97 23 -135 l-21 -22 21 -12 c12 -6 26 -8 31 -5 5 3 7 -1 4 -9 -3 -8 3
-19 14 -25 11 -6 28 -18 36 -27 13 -13 20 -14 31 -4 18 15 20 -1 3 -19 -11
-10 -10 -11 5 -6 19 8 22 23 7 45 -7 11 -10 11 -10 2 0 -7 -4 -11 -10 -7 -6 4
-6 15 0 31 12 30 13 45 2 41 -15 -5 -47 40 -50 71 -1 18 -9 44 -18 58 -9 13
-13 24 -9 24 4 0 2 6 -4 13 -16 20 -2 29 21 13 10 -7 30 -11 44 -8 20 4 24 9
20 26 -5 20 -2 21 107 21 120 0 174 12 228 48 45 29 66 75 90 192 21 106 33
135 54 135 16 0 19 20 9 68 -6 29 -9 31 -103 51 -53 11 -76 18 -51 16 25 -2
70 -6 100 -9 47 -5 51 -4 25 5 -16 6 -36 11 -42 11 -7 1 -16 16 -19 35 -5 28
-8 31 -18 18 -10 -14 -15 -12 -45 14 -18 16 -39 27 -46 25 -7 -3 -15 4 -18 15
-3 14 -10 19 -21 15 -12 -4 -16 0 -16 16 0 11 -4 18 -10 15 -6 -4 -10 20 -10
64 0 42 -5 73 -12 77 -8 5 -10 -9 -6 -54 5 -46 3 -64 -8 -73 -12 -10 -18 -8
-29 8 -9 12 -26 21 -42 21 -15 0 -29 4 -31 10 -2 6 -9 9 -17 6 -7 -3 -24 0
-37 7 -13 7 -30 12 -40 11 -25 -4 -30 11 -29 93 0 41 -4 75 -9 75 -21 0 -42
-68 -35 -114 11 -68 -27 -57 -41 13 -8 38 -24 51 -24 19 0 -25 -16 -56 -24
-47 -8 8 6 79 15 79 5 0 9 5 9 11 0 5 -5 7 -10 4 -6 -4 -10 10 -10 34 l0 40
-30 -10 c-30 -11 -37 -32 -31 -94 3 -28 -8 -65 -18 -65 -14 0 -42 30 -37 39 3
4 6 41 7 83 l3 75 33 -4 c19 -2 33 1 33 7 0 6 -3 9 -8 6 -4 -2 -16 2 -27 10
-10 8 -15 14 -11 14 5 0 2 7 -5 17 -8 9 -14 23 -15 32 -3 46 -5 52 -14 46 -5
-3 -10 -2 -10 4 0 30 27 19 70 -28 34 -36 56 -51 74 -51 14 0 29 -6 33 -14 4
-7 19 -19 32 -26 23 -12 23 -12 18 35 -4 26 -11 52 -16 59 -5 6 -15 33 -21 59
-7 26 -16 47 -21 47 -5 0 -9 6 -9 14 0 8 -5 18 -12 22 -6 4 -8 3 -5 -4 5 -6
-1 -8 -14 -5 -15 4 -17 8 -8 14 9 5 0 19 -29 46 -23 22 -42 47 -42 57 0 12 -5
16 -18 12 -13 -5 -22 0 -28 15 -9 20 -11 19 -38 -21 -53 -81 -111 -133 -252
-226 -77 -52 -146 -94 -153 -94 -6 0 -22 7 -35 15 -22 15 -25 14 -55 -20 -17
-20 -31 -39 -31 -44 0 -15 -78 -63 -117 -71 -93 -22 -178 67 -212 221 l-18 84
-9 -70 c-4 -38 -8 -73 -8 -77 -1 -3 -4 -9 -8 -13 -4 -4 -4 -14 -1 -23 4 -9 2
-13 -4 -9 -7 5 -9 -1 -5 -15 3 -14 1 -19 -6 -14 -6 3 -14 1 -18 -5 -4 -8 -3
-9 5 -5 12 8 15 1 26 -48 6 -26 5 -28 -10 -16 -9 7 -15 9 -14 4 5 -26 -3 -37
-12 -16 -5 13 -7 28 -3 33 3 5 1 9 -4 9 -5 0 -12 -9 -15 -20 -3 -11 -1 -18 4
-14 5 3 9 0 9 -5 0 -19 -19 -12 -31 12 -6 12 -8 19 -4 15 11 -10 34 22 34 47
0 17 -2 16 -11 -5 -10 -24 -10 -24 -18 -5 -4 11 -3 23 2 26 7 4 6 9 0 13 -14
9 -22 -7 -17 -33 2 -12 0 -19 -5 -16 -5 3 -10 0 -13 -7 -2 -7 -2 -2 0 12 4 24
4 24 -10 6 -8 -12 -19 -16 -27 -11 -9 6 -11 -3 -5 -42 5 -40 3 -53 -13 -74
-11 -14 -23 -46 -27 -72 -9 -59 -31 -85 -69 -78 -5 1 -6 -5 -3 -14 5 -11 -1
-15 -22 -15 -24 0 -30 -5 -35 -32 -5 -26 -9 -30 -16 -18 -9 13 -11 13 -20 0
-7 -12 -12 -12 -22 -2 -17 17 -29 15 -22 -3 5 -12 0 -14 -24 -9 -17 4 -32 1
-36 -5 -4 -6 -2 -11 4 -11 7 0 8 -6 2 -17 -13 -24 -4 -43 16 -37 14 5 14 3 -1
-9 -20 -16 -15 -63 5 -51 5 3 27 7 49 8 32 2 39 -1 39 -17 0 -15 -6 -18 -35
-16 -19 2 -40 -2 -47 -9 -14 -14 -48 -16 -48 -3 0 5 -9 7 -20 4 -11 -3 -20
-12 -20 -19 0 -8 -9 -14 -20 -14 -11 0 -20 -7 -20 -15 0 -18 -21 -20 -38 -3
-15 15 -16 3 -2 -22 7 -13 6 -19 -3 -23 -7 -2 -13 -17 -15 -33 -2 -32 -23 -84
-34 -84 -13 0 -18 38 -16 116 3 78 2 80 -34 128 -43 56 -46 76 -18 114 12 16
57 136 101 267 86 255 100 288 161 378 40 59 52 67 62 42 3 -8 1 -15 -4 -15
-6 0 -10 -10 -10 -22 1 -22 1 -22 15 -4 8 10 16 24 19 30 3 7 8 6 16 -4 9 -13
10 -12 6 5 -3 11 -1 27 4 35 7 11 10 7 10 -17 0 -18 2 -33 6 -33 3 0 19 15 37
33 36 37 122 107 132 107 3 0 14 7 23 16 20 20 30 1 12 -22 -11 -12 -10 -13 4
-8 12 5 16 0 17 -17 l1 -24 7 23 c3 13 17 30 31 37 19 11 21 14 8 15 -10 0
-18 5 -18 11 0 6 9 9 19 6 13 -3 21 1 24 12 3 11 6 7 11 -11 11 -39 26 -35 26
6 0 37 14 55 26 35 4 -8 3 -9 -4 -5 -7 4 -12 1 -12 -8 0 -26 20 -28 30 -4 11
23 11 23 5 -2 -2 -14 -5 -29 -5 -33 0 -5 -3 -6 -7 -4 -5 3 -9 -36 -9 -86 l-1
-92 8 65 c5 36 7 71 4 78 -2 6 0 12 5 12 6 0 10 9 10 20 0 12 9 39 21 62 11
22 27 72 35 112 26 126 42 164 82 191 20 14 50 25 66 25 33 0 73 39 132 128
42 63 103 107 140 99 14 -2 45 1 69 9 24 7 77 16 117 19 40 3 90 13 111 22 34
15 42 15 98 -2 93 -29 224 -141 258 -222 11 -28 62 -66 92 -69 9 0 22 -5 29
-9 9 -5 10 -1 5 16 -3 13 -3 19 2 14 4 -6 22 -12 38 -13 70 -5 135 -33 207
-90 111 -89 187 -161 230 -220 22 -29 62 -76 90 -104 51 -52 117 -174 159
-297 11 -30 25 -62 33 -70 23 -25 94 -164 109 -212 42 -131 60 -210 61 -266 1
-52 -3 -65 -21 -83 -13 -11 -23 -18 -23 -15 0 3 -19 -5 -42 -18 -24 -13 -53
-22 -65 -20 -29 5 -37 30 -12 38 28 9 23 34 -8 47 -30 13 -63 42 -63 55 0 14
-43 13 -60 -1 -8 -7 -26 -19 -40 -26 -22 -11 -20 -7 11 26 46 50 64 91 48 110
-6 8 -14 14 -18 14 -3 0 -36 -28 -73 -63 -50 -47 -64 -67 -57 -78 16 -26 10
-39 -20 -39 -30 0 -56 21 -43 35 4 4 0 6 -8 3 -8 -3 -14 -16 -14 -29 1 -13 5
-64 8 -114 6 -82 6 -88 -9 -71 -8 11 -15 29 -15 40 0 18 -2 18 -13 6 -12 -13
-52 -200 -49 -225 1 -5 6 -80 11 -165 9 -136 8 -168 -9 -261 -17 -95 -44 -185
-59 -199 -3 -3 -14 -22 -23 -42 -10 -21 -22 -38 -28 -38 -5 0 -10 -6 -10 -13
0 -8 -9 -22 -19 -31 -20 -18 -71 -114 -71 -133 0 -6 -6 -16 -14 -22 -8 -7 -18
-26 -22 -43 -3 -17 -42 -85 -85 -150 -71 -108 -79 -117 -85 -94 -13 53 -21 13
-22 -120 -2 -122 0 -139 18 -161 21 -27 27 -73 10 -73 -5 0 -10 5 -10 10 0 6
-5 10 -11 10 -15 0 -3 -613 16 -768 11 -99 13 -194 2 -180 -6 10 -8 9 -4 -2 3
-13 93 -15 717 -18 520 -2 716 1 726 9 9 7 14 8 14 1 0 -6 34 -11 89 -11 l89
-1 6 35 c5 24 11 33 21 28 13 -4 15 294 15 2406 l0 2411 -2440 0 -2440 0 0
-2440z m1920 1380 c0 -5 -4 -10 -10 -10 -5 0 -10 5 -10 10 0 6 5 10 10 10 6 0
10 -4 10 -10z m-40 -25 c0 -8 -4 -15 -10 -15 -5 0 -7 7 -4 15 4 8 8 15 10 15
2 0 4 -7 4 -15z m-170 -51 c-3 -5 -10 -8 -16 -8 -7 1 -9 -7 -6 -18 3 -14 -2
-21 -17 -25 -11 -3 -19 -8 -17 -12 3 -4 1 -13 -5 -21 -7 -12 -9 -10 -9 7 0 12
9 29 21 37 12 8 18 19 14 25 -3 6 -4 15 -1 20 8 12 43 7 36 -5z m-117 -55 c-6
-6 -9 -19 -6 -28 3 -11 1 -11 -7 3 -10 15 -9 20 1 27 19 12 25 11 12 -2z
m1142 -190 c-4 -5 -2 -9 2 -9 10 0 33 -58 33 -83 0 -23 -30 -22 -32 1 -2 31
-3 37 -9 47 -10 19 -9 66 1 60 6 -4 8 -11 5 -16z m102 3 c17 -11 27 -98 13
-107 -6 -4 -11 -1 -9 6 3 28 -1 40 -13 33 -7 -5 -8 -3 -4 5 5 7 1 18 -10 25
-10 8 -15 20 -11 30 7 18 16 20 34 8z m19 -157 c4 -8 -3 -36 -15 -61 -12 -25
-24 -59 -28 -75 -3 -16 -9 -29 -13 -29 -5 0 -16 -3 -26 -7 -11 -4 -15 -3 -11
4 4 6 9 30 12 53 12 91 63 163 81 115z m48 0 c3 -8 1 -15 -4 -15 -6 0 -10 7
-10 15 0 8 2 15 4 15 2 0 6 -7 10 -15z m-188 -47 c-2 -18 -8 -55 -12 -83 l-9
-50 -5 55 c-5 56 5 110 21 110 5 0 7 -15 5 -32z m-227 -52 c-9 -8 -10 -7 -5 7
3 10 7 24 7 30 1 7 3 4 6 -7 3 -10 -1 -23 -8 -30z m-83 -35 c-1 -33 -4 -63 -8
-67 -5 -4 -9 -3 -9 2 -8 60 -7 77 1 99 5 14 11 25 13 25 2 0 3 -27 3 -59z
m179 20 c-4 -9 -8 -24 -10 -33 -2 -10 -9 -26 -15 -35 -8 -14 -9 -10 -6 22 2
22 7 48 11 57 9 23 29 12 20 -11z m-263 -51 c-2 -35 1 -61 8 -65 8 -5 5 -11
-7 -21 -25 -18 -30 -17 -44 7 -6 12 -7 19 -2 16 4 -3 9 5 9 18 1 13 -4 26 -12
29 -20 7 -18 24 3 22 11 -1 19 10 25 33 13 48 23 29 20 -39z m-45 43 c-4 -3
-2 -12 4 -20 13 -15 1 -17 -21 -3 -13 9 -13 11 0 20 17 11 26 13 17 3z m216
-8 c4 -8 3 -16 -1 -19 -4 -3 -9 4 -9 15 -2 23 3 25 10 4z m-258 -45 c0 -22 -4
-40 -9 -40 -5 0 -6 -3 -2 -7 4 -5 13 -8 19 -8 7 0 12 -6 11 -12 -3 -36 -5 -41
-18 -46 -11 -4 -13 -1 -9 11 6 14 4 15 -8 5 -12 -10 -13 -2 -11 49 3 42 1 58
-7 54 -6 -4 -11 -1 -11 8 0 14 13 24 35 25 6 1 10 -17 10 -39z m400 21 c3 -5
1 -12 -5 -16 -5 -3 -10 1 -10 9 0 18 6 21 15 7z m-461 -63 c-4 -35 -8 -72 -10
-83 -1 -11 -3 -25 -3 -31 -1 -7 -8 -15 -17 -18 -13 -5 -15 5 -13 69 1 42 -1
78 -4 81 -8 8 -20 -59 -21 -120 -1 -57 -10 -78 -30 -70 -7 3 -16 -2 -19 -10
-8 -19 -46 -21 -53 -3 -5 15 -44 20 -44 6 0 -6 -4 -8 -10 -4 -5 3 -18 -3 -30
-15 -28 -28 -45 -25 -47 10 -1 17 2 30 8 30 6 0 7 -6 3 -12 -7 -14 36 32 67
71 11 13 22 22 24 19 3 -3 28 17 56 44 38 38 112 86 147 97 2 1 1 -27 -4 -61z
m323 20 c-3 -7 -5 -2 -5 12 0 14 2 19 5 13 2 -7 2 -19 0 -25z m133 -47 c0 -5
-6 -14 -14 -20 -16 -13 -32 2 -21 19 8 12 35 13 35 1z m95 -20 c3 -5 2 -12 -3
-15 -5 -3 -9 1 -9 9 0 17 3 19 12 6z m-80 -21 c-20 -23 -29 -21 -19 4 3 9 13
16 22 16 13 0 12 -3 -3 -20z m30 -20 c3 -5 1 -10 -4 -10 -6 0 -11 5 -11 10 0
6 2 10 4 10 3 0 8 -4 11 -10z m115 -54 c0 -6 -7 -3 -14 6 -7 10 -16 15 -19 11
-4 -3 -7 3 -7 14 0 11 3 23 7 26 7 7 33 -38 33 -57z m-85 4 c-3 -5 -1 -10 6
-10 7 0 10 -2 7 -5 -3 -3 -13 -2 -22 1 -14 5 -15 9 -4 15 17 11 20 11 13 -1z
m37 -36 c-7 -12 -9 -8 -10 18 -1 26 1 30 9 16 6 -11 6 -24 1 -34z m-27 -3 c3
-5 1 -12 -5 -16 -5 -3 -10 1 -10 9 0 18 6 21 15 7z m140 -1 c-3 -5 -12 -10
-18 -10 -7 0 -6 4 3 10 19 12 23 12 15 0z m-1305 -10 c0 -5 -4 -10 -10 -10 -5
0 -10 5 -10 10 0 6 5 10 10 10 6 0 10 -4 10 -10z m1255 0 c3 -5 1 -10 -4 -10
-6 0 -11 5 -11 10 0 6 2 10 4 10 3 0 8 -4 11 -10z m15 -31 c-7 -11 -14 -18
-17 -15 -3 3 0 12 7 21 18 21 23 19 10 -6z m627 -15 c-3 -3 -12 -4 -19 -1 -8
3 -5 6 6 6 11 1 17 -2 13 -5z m-887 -18 c0 -11 -19 -15 -25 -6 -3 5 1 10 9 10
9 0 16 -2 16 -4z m-590 -35 c0 -6 -4 -13 -10 -16 -5 -3 -10 1 -10 9 0 9 5 16
10 16 6 0 10 -4 10 -9z m1050 4 c0 -2 -11 -11 -24 -20 -17 -11 -30 -13 -47 -6
l-24 9 25 10 c26 11 70 15 70 7z m-181 -16 c6 10 13 11 27 2 19 -10 19 -10 0
-11 -10 0 -25 -8 -32 -17 -13 -17 -13 -17 -14 0 0 9 -8 17 -17 17 -15 0 -16 2
-3 10 9 6 17 5 22 -3 6 -9 10 -9 17 2z m-792 -5 c-3 -3 -12 -4 -19 -1 -8 3 -5
6 6 6 11 1 17 -2 13 -5z m693 -4 c0 -5 -2 -10 -4 -10 -3 0 -8 5 -11 10 -3 6
-1 10 4 10 6 0 11 -4 11 -10z m336 -21 c10 -17 -13 -36 -27 -22 -12 12 -4 33
11 33 5 0 12 -5 16 -11z m-541 -8 c7 -12 -12 -24 -25 -16 -11 7 -4 25 10 25 5
0 11 -4 15 -9z m-195 -5 c0 -3 -4 -8 -10 -11 -5 -3 -10 -1 -10 4 0 6 5 11 10
11 6 0 10 -2 10 -4z m-535 -26 c-3 -5 -7 -30 -10 -56 -5 -50 -25 -87 -25 -46
0 12 -4 22 -9 22 -18 0 -22 39 -7 69 12 22 21 28 36 24 11 -3 18 -9 15 -13z
m2019 -5 c3 -8 2 -15 -3 -15 -5 0 -14 7 -21 15 -10 12 -10 15 3 15 8 0 17 -7
21 -15z m-1094 -39 c0 -26 -6 -18 -14 19 -5 22 -4 26 4 15 5 -8 10 -24 10 -34z
m229 -76 c0 -20 -1 -22 -9 -10 -5 8 -9 33 -9 55 1 39 2 39 9 10 4 -16 8 -41 9
-55z m-38 -11 c11 -30 16 -49 11 -44 -6 6 -20 34 -31 64 -11 30 -16 50 -10 44
5 -5 19 -34 30 -64z m-1190 24 c-8 -15 -10 -15 -11 -2 0 17 10 32 18 25 2 -3
-1 -13 -7 -23z m54 -32 c3 -5 1 -12 -5 -16 -5 -3 -10 1 -10 9 0 18 6 21 15 7z
m1209 -70 c21 -39 71 -88 115 -111 20 -10 30 -19 23 -20 -22 0 -66 27 -98 62
-30 32 -64 82 -64 93 0 13 11 3 24 -24z m76 -124 l25 -17 -30 14 c-16 8 -46
31 -65 52 l-35 38 40 -34 c22 -19 51 -43 65 -53z m-430 69 c0 -2 -8 -10 -17
-17 -16 -13 -17 -12 -4 4 13 16 21 21 21 13z m537 -82 c-3 -3 -12 -4 -19 -1
-8 3 -5 6 6 6 11 1 17 -2 13 -5z m40 -10 c-3 -3 -12 -4 -19 -1 -8 3 -5 6 6 6
11 1 17 -2 13 -5z m-212 -494 c4 -6 3 -24 0 -41 -6 -28 -9 -30 -22 -16 -10 10
-13 24 -9 41 7 27 20 34 31 16z m-431 -302 c-3 -5 2 -11 11 -14 9 -4 14 -13
11 -20 -3 -8 -2 -14 3 -14 4 0 8 -6 8 -12 0 -7 4 -22 8 -33 6 -16 4 -14 -12 5
-28 35 -63 106 -63 127 0 15 4 14 19 -7 11 -13 17 -28 15 -32z m176 12 c0 -5
-5 -10 -11 -10 -5 0 -7 5 -4 10 3 6 8 10 11 10 2 0 4 -4 4 -10z m-30 -14 c0
-3 -4 -8 -10 -11 -5 -3 -10 -1 -10 4 0 6 5 11 10 11 6 0 10 -2 10 -4z m-490
-36 c0 -5 -2 -10 -4 -10 -3 0 -8 5 -11 10 -3 6 -1 10 4 10 6 0 11 -4 11 -10z
m70 -36 c0 -24 -17 -24 -28 0 -9 21 -8 23 9 19 10 -3 19 -11 19 -19z m-55 -4
c3 -5 -1 -10 -10 -10 -9 0 -13 -4 -10 -10 3 -5 1 -10 -4 -10 -13 0 -13 3 -5
24 7 18 20 21 29 6z m91 -26 c-6 -21 -4 -25 8 -21 11 5 16 0 16 -13 0 -23 -28
-27 -36 -5 -7 16 3 65 12 65 4 0 3 -12 0 -26z m607 -200 c-2 -130 -7 -222 -13
-228 -15 -15 -18 422 -3 447 15 25 19 -25 16 -219z m-633 175 c0 -5 -4 -9 -10
-9 -5 0 -10 7 -10 16 0 8 5 12 10 9 6 -3 10 -10 10 -16z m-184 -72 c10 -10 43
-109 44 -129 0 -9 6 -21 13 -25 7 -4 26 -35 42 -68 17 -33 33 -61 38 -63 4 -2
7 -10 7 -17 0 -8 6 -18 13 -22 18 -12 35 -52 41 -100 3 -23 7 -47 9 -55 2 -7
2 -9 -1 -4 -2 4 -8 3 -12 -4 -6 -10 -16 -8 -43 9 -19 11 -43 21 -53 20 -14 0
-15 -2 -4 -6 15 -6 30 -17 62 -47 19 -17 19 -20 4 -28 -9 -5 -16 -16 -16 -23
0 -8 -6 -14 -12 -13 -7 2 -12 -3 -10 -10 1 -8 -2 -11 -8 -7 -5 3 -10 2 -10 -4
0 -7 -8 -7 -24 0 -28 13 -39 54 -20 74 8 8 10 16 6 19 -12 7 -13 126 -1 126 5
0 4 6 -3 14 -8 9 -19 11 -29 5 -9 -4 -19 -5 -23 -1 -4 3 -11 1 -15 -7 -6 -8
-10 -2 -15 20 -3 18 -2 37 4 43 14 14 13 39 -1 30 -9 -5 -10 6 -7 40 3 25 1
46 -4 46 -5 0 -8 45 -7 99 1 77 4 98 15 97 7 -1 16 -5 20 -9z m194 9 c0 -3 -4
-8 -10 -11 -5 -3 -10 -1 -10 4 0 6 5 11 10 11 6 0 10 -2 10 -4z m-766 -91 c10
-27 -22 -16 -44 14 l-20 30 29 -15 c16 -8 32 -21 35 -29z m16 25 c0 -5 -2 -10
-4 -10 -3 0 -8 5 -11 10 -3 6 -1 10 4 10 6 0 11 -4 11 -10z m482 -32 c-7 -7
-12 -8 -12 -2 0 6 3 14 7 17 3 4 9 5 12 2 2 -3 -1 -11 -7 -17z m-217 -17 c3
-5 1 -12 -5 -16 -5 -3 -10 1 -10 9 0 18 6 21 15 7z m-265 -11 c0 -5 -5 -10
-11 -10 -5 0 -7 5 -4 10 3 6 8 10 11 10 2 0 4 -4 4 -10z m266 -55 c8 -21 -6
-41 -17 -24 -12 19 -11 39 1 39 6 0 13 -7 16 -15z m-150 -42 c-10 -10 -19 5
-10 18 6 11 8 11 12 0 2 -7 1 -15 -2 -18z m-87 -51 c1 -7 -3 -10 -9 -7 -5 3
-10 18 -9 33 0 24 1 25 9 7 5 -11 9 -26 9 -33z m34 7 c4 -16 3 -18 -9 -8 -7 6
-11 15 -8 20 8 13 11 11 17 -12z m-203 -6 c0 -10 -20 -40 -20 -31 0 3 -3 13
-6 22 -4 11 -1 16 10 16 9 0 16 -3 16 -7z m250 -3 c0 -5 -2 -10 -4 -10 -3 0
-8 5 -11 10 -3 6 -1 10 4 10 6 0 11 -4 11 -10z m-310 -51 c0 -5 -4 -9 -10 -9
-5 0 -10 7 -10 16 0 8 5 12 10 9 6 -3 10 -10 10 -16z m308 -22 c-7 -14 -13
-17 -16 -9 -6 19 6 44 18 37 7 -4 6 -14 -2 -28z m1892 23 c0 -5 -4 -10 -10
-10 -5 0 -10 5 -10 10 0 6 5 10 10 10 6 0 10 -4 10 -10z m-1585 -30 c3 -5 1
-10 -4 -10 -6 0 -11 5 -11 10 0 6 2 10 4 10 3 0 8 -4 11 -10z m1557 -25 c0 -5
-5 -11 -11 -13 -6 -2 -11 4 -11 13 0 9 5 15 11 13 6 -2 11 -8 11 -13z m-1193
-47 c1 -5 -3 -8 -9 -8 -5 0 -10 12 -9 28 0 24 1 25 9 7 5 -11 9 -23 9 -27z
m1162 17 c-1 -15 -24 -12 -29 3 -3 9 2 13 12 10 10 -1 17 -7 17 -13z m-1981
-5 c0 -5 -2 -10 -4 -10 -3 0 -8 5 -11 10 -3 6 -1 10 4 10 6 0 11 -4 11 -10z
m35 -10 c3 -5 1 -10 -4 -10 -6 0 -11 5 -11 10 0 6 2 10 4 10 3 0 8 -4 11 -10z
m563 -21 c-3 -8 -7 -3 -11 10 -4 17 -3 21 5 13 5 -5 8 -16 6 -23z m1369 -15
c-9 -9 -28 6 -21 18 4 6 10 6 17 -1 6 -6 8 -13 4 -17z m114 9 c13 -16 12 -17
-3 -4 -10 7 -18 15 -18 17 0 8 8 3 21 -13z m-540 -80 c0 -27 2 -61 4 -78 3
-26 2 -27 -7 -11 -13 23 -18 136 -6 136 4 0 8 -21 9 -47z m-1251 -53 c0 -5 -2
-10 -4 -10 -3 0 -8 5 -11 10 -3 6 -1 10 4 10 6 0 11 -4 11 -10z m-420 -10 c0
-5 -2 -10 -4 -10 -3 0 -8 5 -11 10 -3 6 -1 10 4 10 6 0 11 -4 11 -10z m160
-20 c0 -5 -2 -10 -4 -10 -3 0 -8 5 -11 10 -3 6 -1 10 4 10 6 0 11 -4 11 -10z
m-240 -10 c0 -5 -2 -10 -4 -10 -3 0 -8 5 -11 10 -3 6 -1 10 4 10 6 0 11 -4 11
-10z m175 -30 c3 -5 2 -10 -4 -10 -5 0 -13 5 -16 10 -3 6 -2 10 4 10 5 0 13
-4 16 -10z m50 -19 c3 -5 1 -12 -5 -16 -5 -3 -10 1 -10 9 0 18 6 21 15 7z
m1945 -41 c0 -5 -2 -10 -4 -10 -3 0 -8 5 -11 10 -3 6 -1 10 4 10 6 0 11 -4 11
-10z m580 -9 c0 -6 -4 -13 -10 -16 -5 -3 -10 1 -10 9 0 9 5 16 10 16 6 0 10
-4 10 -9z m-2700 -81 c3 -1 -8 -6 -25 -9 -35 -9 -58 -1 -29 9 17 6 37 6 54 0z
m3025 -20 c-3 -5 -21 -10 -38 -9 -27 0 -29 2 -12 9 28 12 57 12 50 0z m-775
-10 c0 -5 -4 -10 -10 -10 -5 0 -10 5 -10 10 0 6 5 10 10 10 6 0 10 -4 10 -10z
m45 0 c3 -5 1 -10 -4 -10 -6 0 -11 5 -11 10 0 6 2 10 4 10 3 0 8 -4 11 -10z
m515 -4 c0 -3 -4 -8 -10 -11 -5 -3 -10 -1 -10 4 0 6 5 11 10 11 6 0 10 -2 10
-4z m150 -44 c0 -13 -12 -22 -22 -16 -10 6 -1 24 13 24 5 0 9 -4 9 -8z m-2560
-12 c0 -5 -5 -10 -11 -10 -5 0 -7 5 -4 10 3 6 8 10 11 10 2 0 4 -4 4 -10z
m2450 1 c0 -12 -20 -25 -27 -18 -7 7 6 27 18 27 5 0 9 -4 9 -9z m-2755 -11 c3
-5 2 -10 -4 -10 -5 0 -13 5 -16 10 -3 6 -2 10 4 10 5 0 13 -4 16 -10z m2110 0
c3 -5 2 -10 -4 -10 -5 0 -13 5 -16 10 -3 6 -2 10 4 10 5 0 13 -4 16 -10z
m-2145 -30 c0 -5 -4 -10 -9 -10 -6 0 -13 5 -16 10 -3 6 1 10 9 10 9 0 16 -4
16 -10z m5 -30 c3 -5 1 -10 -4 -10 -6 0 -11 5 -11 10 0 6 2 10 4 10 3 0 8 -4
11 -10z m-101 -16 c5 -14 4 -15 -9 -4 -17 14 -19 20 -6 20 5 0 12 -7 15 -16z
m3076 -9 c0 -9 -9 -15 -25 -15 -24 0 -32 10 -18 23 12 13 43 7 43 -8z m-640
-5 c0 -5 -4 -10 -10 -10 -5 0 -10 5 -10 10 0 6 5 10 10 10 6 0 10 -4 10 -10z
m-70 -30 c0 -5 -4 -10 -10 -10 -5 0 -10 5 -10 10 0 6 5 10 10 10 6 0 10 -4 10
-10z m689 -21 c-22 -14 -33 -10 -19 6 7 8 17 12 22 9 6 -4 5 -10 -3 -15z m157
7 c37 7 113 -16 134 -40 6 -8 37 -24 69 -36 97 -36 129 -89 106 -175 -12 -46
-22 -54 -62 -48 -24 4 -38 2 -44 -8 -7 -11 -9 -11 -9 -1 0 16 -35 -15 -42 -38
-3 -8 -9 15 -13 53 -6 51 -4 71 6 84 13 15 12 15 -7 5 -34 -18 -49 -41 -36
-54 14 -14 16 -32 3 -23 -5 3 -12 1 -16 -5 -3 -6 1 -13 9 -16 14 -5 24 -44 12
-44 -2 0 -13 -3 -23 -6 -15 -5 -15 -4 -3 5 13 9 12 11 -5 12 l-20 0 20 9 20 9
-20 1 c-13 1 -15 3 -6 7 11 5 11 7 0 14 -11 7 -11 9 -1 9 7 0 10 5 7 10 -3 6
-1 10 5 10 6 0 8 5 5 11 -4 6 2 20 14 33 16 17 19 28 12 51 -6 20 -10 25 -14
15 -14 -40 -17 -43 -13 -14 4 28 3 30 -23 26 -17 -2 -34 3 -44 12 -8 9 -22 16
-31 16 -22 0 -28 17 -9 24 14 6 15 9 4 15 -7 5 -13 12 -14 17 -1 5 -13 8 -27
6 -33 -5 -22 5 26 22 l39 14 -58 -2 c-58 -1 -70 6 -40 23 11 6 24 6 35 0 10
-6 34 -7 54 -3z m-3189 -2 c-3 -3 -12 -4 -19 -1 -8 3 -5 6 6 6 11 1 17 -2 13
-5z m-107 -24 c0 -5 -4 -10 -10 -10 -5 0 -10 5 -10 10 0 6 5 10 10 10 6 0 10
-4 10 -10z m2780 0 c0 -5 -7 -10 -15 -10 -8 0 -15 5 -15 10 0 6 7 10 15 10 8
0 15 -4 15 -10z m261 -4 c5 3 9 0 9 -5 0 -6 -10 -11 -22 -11 -35 0 -68 11 -63
20 3 5 19 4 37 0 17 -5 35 -7 39 -4z m-2628 -88 c36 -26 28 -34 -11 -14 -17 9
-32 12 -35 8 -2 -4 -2 -1 -1 5 2 7 -5 17 -14 23 -14 9 -12 10 8 4 14 -4 38
-16 53 -26z m1757 22 c0 -5 -7 -10 -16 -10 -8 0 -12 5 -9 10 3 6 10 10 16 10
5 0 9 -4 9 -10z m-995 -40 c-3 -4 0 -10 7 -12 6 -2 8 -9 4 -16 -5 -8 -13 -5
-26 8 -25 25 -25 25 0 27 11 1 18 -2 15 -7z m2158 -40 c-7 -28 -13 -25 -13 6
0 14 4 23 9 20 5 -3 7 -15 4 -26z m-2073 10 c0 -5 -2 -10 -4 -10 -3 0 -8 5
-11 10 -3 6 -1 10 4 10 6 0 11 -4 11 -10z m1965 -10 c3 -5 1 -10 -4 -10 -6 0
-11 5 -11 10 0 6 2 10 4 10 3 0 8 -4 11 -10z m-2885 -10 c0 -13 -11 -13 -30 0
-12 8 -11 10 8 10 12 0 22 -4 22 -10z m2020 0 c0 -5 -4 -10 -10 -10 -5 0 -10
5 -10 10 0 6 5 10 10 10 6 0 10 -4 10 -10z m900 -20 c0 -5 -7 -10 -16 -10 -8
0 -12 5 -9 10 3 6 10 10 16 10 5 0 9 -4 9 -10z m-745 -10 c3 -5 1 -10 -4 -10
-6 0 -11 5 -11 10 0 6 2 10 4 10 3 0 8 -4 11 -10z m655 -20 c0 -5 -5 -10 -11
-10 -5 0 -7 5 -4 10 3 6 8 10 11 10 2 0 4 -4 4 -10z m-2720 -20 c8 -5 11 -10
5 -10 -5 0 -17 5 -25 10 -8 5 -10 10 -5 10 6 0 17 -5 25 -10z m1861 -37 c13
-16 12 -17 -3 -4 -17 13 -22 21 -14 21 2 0 10 -8 17 -17z m109 -15 c0 -5 -4
-8 -10 -8 -5 0 -10 10 -10 23 0 18 2 19 10 7 5 -8 10 -18 10 -22z m657 16 c-3
-3 -12 -4 -19 -1 -8 3 -5 6 6 6 11 1 17 -2 13 -5z m-816 -37 c-1 -12 -15 -9
-19 4 -3 6 1 10 8 8 6 -3 11 -8 11 -12z m-1951 -7 c0 -5 -4 -10 -10 -10 -5 0
-10 5 -10 10 0 6 5 10 10 10 6 0 10 -4 10 -10z m-70 -16 c0 -2 -9 -4 -20 -4
-11 0 -20 4 -20 9 0 5 9 7 20 4 11 -3 20 -7 20 -9z m175 6 c4 -6 -9 -10 -32
-9 -30 0 -34 2 -18 9 27 12 43 12 50 0z"/>
<path d="M2117 1085 c-9 -22 8 -26 21 -4 10 15 10 19 -2 19 -8 0 -16 -7 -19
-15z"/>
<path d="M2285 1010 c3 -5 8 -10 11 -10 2 0 4 5 4 10 0 6 -5 10 -11 10 -5 0
-7 -4 -4 -10z"/>
<path d="M4620 280 c13 -9 13 -11 0 -20 -8 -5 -13 -10 -10 -11 3 0 13 -2 23
-4 20 -4 21 -1 7 26 -6 10 -16 19 -23 19 -8 0 -6 -4 3 -10z"/>
<path d="M4817 101 c-3 -12 -1 -21 3 -21 15 0 23 21 12 32 -6 6 -11 2 -15 -11z"/>
<path d="M3160 4156 c0 -30 -31 -85 -51 -91 -16 -5 -18 -10 -8 -21 13 -16 59
-19 59 -4 0 5 6 7 14 4 8 -3 17 -1 21 5 3 6 -2 11 -12 11 -15 1 -14 3 6 14 15
8 20 16 12 20 -6 4 -15 5 -19 2 -5 -3 -9 11 -10 31 -2 36 -12 62 -12 29z"/>
<path d="M2971 4138 c-21 -6 -31 -15 -31 -27 0 -17 4 -18 40 -9 43 11 73 44
41 44 -10 0 -32 -4 -50 -8z"/>
<path d="M2620 4120 c-8 -5 -12 -12 -9 -15 4 -3 12 1 19 10 14 17 11 19 -10 5z"/>
<path d="M2914 3924 c-10 -32 -9 -34 35 -66 25 -18 52 -38 60 -46 7 -7 16 -10
19 -7 4 3 0 10 -8 15 -8 5 -15 23 -16 41 -1 21 1 27 7 18 6 -10 9 -8 9 9 0 12
-4 22 -9 22 -5 0 -14 12 -19 28 -7 17 -11 21 -11 10 -1 -18 -21 -26 -21 -9 0
5 -8 11 -18 13 -13 4 -21 -3 -28 -28z"/>
<path d="M1912 3735 c0 -16 2 -22 5 -12 2 9 2 23 0 30 -3 6 -5 -1 -5 -18z"/>
<path d="M3235 3720 c-15 -47 37 -202 96 -283 15 -21 37 -68 48 -105 12 -37
28 -76 36 -87 15 -18 15 -14 9 55 -3 41 -10 85 -15 98 -5 12 -8 26 -7 30 3 17
-15 92 -22 92 -5 0 -11 13 -15 29 -3 16 -13 35 -21 41 -7 7 -11 16 -9 21 3 4
-4 13 -15 19 -11 6 -20 17 -20 25 0 24 -39 85 -54 85 -2 0 -8 -9 -11 -20z"/>
<path d="M2321 3529 c-16 -13 -18 -19 -8 -19 15 0 43 27 36 34 -2 3 -15 -4
-28 -15z"/>
<path d="M1845 3520 c-3 -6 1 -7 9 -4 18 7 21 14 7 14 -6 0 -13 -4 -16 -10z"/>
<path d="M1855 3489 c-4 -6 -5 -12 -2 -15 2 -3 7 2 10 11 7 17 1 20 -8 4z"/>
<path d="M3649 3467 c-9 -7 -21 -28 -27 -47 -15 -48 -27 -296 -15 -303 6 -4
22 30 36 76 31 97 41 149 37 197 -6 92 -7 94 -31 77z"/>
<path d="M3877 3393 c-3 -10 -13 -52 -22 -93 -9 -41 -41 -124 -71 -185 -54
-111 -64 -151 -42 -173 22 -22 34 -13 89 71 83 125 82 121 73 191 -5 33 -8 68
-7 76 7 67 5 124 -4 127 -6 2 -14 -4 -16 -14z"/>
<path d="M3316 3375 c8 -33 33 -86 33 -70 1 15 -24 83 -33 92 -4 5 -4 -6 0
-22z"/>
<path d="M3502 3376 c-13 -30 -7 -136 8 -165 10 -19 17 79 10 144 -6 50 -6 50
-18 21z"/>
<path d="M3326 3181 c-4 -5 -2 -20 3 -33 9 -21 10 -21 10 10 1 32 -3 39 -13
23z"/>
<path d="M3716 3128 c-32 -57 -39 -84 -28 -104 8 -15 11 -14 17 7 4 13 14 28
21 34 8 5 15 20 17 32 2 12 6 26 10 29 10 11 8 44 -3 44 -5 0 -20 -19 -34 -42z"/>
<path d="M3656 3125 c-9 -26 -7 -32 5 -12 6 10 9 21 6 23 -2 3 -7 -2 -11 -11z"/>
<path d="M1741 3103 c-10 -26 -10 -27 4 -9 8 11 15 23 15 28 0 15 -7 8 -19
-19z"/>
<path d="M3671 2955 c-1 -12 -6 -26 -12 -32 -8 -8 -7 -13 1 -18 20 -12 30 8
21 40 -7 22 -10 24 -10 10z"/>
<path d="M2815 2196 c-8 -13 -13 -31 -9 -40 5 -12 2 -15 -10 -10 -19 7 -20 16
-3 33 7 9 7 11 1 8 -7 -4 -28 0 -48 8 -39 16 -88 15 -122 -3 -11 -6 -31 -8
-43 -5 -16 4 -20 2 -16 -9 10 -24 51 -41 82 -34 53 13 68 12 93 -6 22 -14 33
-15 80 -6 69 13 89 30 69 54 -12 16 -12 17 1 9 13 -8 13 -7 1 8 -20 25 -58 21
-76 -7z"/>
<path d="M3170 2201 c0 -5 5 -13 10 -16 6 -3 10 -2 10 4 0 5 -4 13 -10 16 -5
3 -10 2 -10 -4z"/>
<path d="M2938 2167 c-48 -28 -48 -37 0 -26 20 5 52 9 70 9 34 0 40 8 20 28
-18 18 -48 14 -90 -11z"/>
<path d="M2778 2080 c22 -21 30 -36 13 -25 -6 3 -14 -2 -19 -11 -6 -11 -11
-13 -16 -5 -4 6 -2 11 3 11 6 0 11 5 11 10 0 6 -4 10 -9 10 -16 0 -24 -40 -11
-55 10 -12 17 -11 48 5 41 21 109 31 132 19 16 -8 58 16 47 27 -4 4 -13 1 -21
-5 -10 -9 -16 -9 -21 -1 -4 7 -17 9 -28 6 -13 -3 -26 2 -34 12 -11 15 -12 15
-7 1 9 -28 -39 -30 -66 -2 -12 12 -27 23 -33 23 -6 0 -1 -9 11 -20z"/>
<path d="M2965 2030 c3 -5 8 -10 11 -10 2 0 4 5 4 10 0 6 -5 10 -11 10 -5 0
-7 -4 -4 -10z"/>
<path d="M2720 2010 c0 -5 5 -10 10 -10 6 0 10 5 10 10 0 6 -4 10 -10 10 -5 0
-10 -4 -10 -10z"/>
<path d="M2642 1974 c-9 -10 -10 -19 -2 -34 14 -27 28 -25 36 5 3 14 10 25 15
25 5 0 9 5 9 11 0 8 -4 8 -13 0 -8 -6 -17 -7 -23 -2 -5 6 -14 4 -22 -5z m28
-20 c0 -8 -4 -12 -10 -9 -5 3 -10 10 -10 16 0 5 5 9 10 9 6 0 10 -7 10 -16z"/>
<path d="M2610 1930 c-13 -8 -12 -10 3 -10 9 0 17 -4 17 -10 0 -5 -7 -10 -16
-10 -8 0 -13 -4 -10 -9 6 -10 56 -12 56 -2 0 3 -8 16 -18 28 -12 17 -21 20
-32 13z"/>
<path d="M2600 1855 c7 -8 17 -12 22 -9 6 4 14 0 20 -7 7 -11 8 -9 6 6 -2 13
-12 20 -31 22 -24 2 -27 0 -17 -12z"/>
<path d="M2596 1821 c5 -5 20 -12 33 -16 20 -6 22 -5 11 7 -8 8 -22 15 -33 15
-11 1 -16 -2 -11 -6z"/>
<path d="M2594 1779 c0 -12 4 -15 12 -9 6 6 14 7 18 3 11 -11 36 -12 36 -1 0
6 -7 8 -15 4 -8 -3 -15 -2 -15 3 0 5 -8 11 -18 13 -12 4 -18 -1 -18 -13z"/>
<path d="M2580 1220 c0 -5 5 -10 10 -10 6 0 10 5 10 10 0 6 -4 10 -10 10 -5 0
-10 -4 -10 -10z"/>
<path d="M3134 752 c-14 -10 -14 -2 -20 -400 -5 -350 -5 -352 16 -352 20 0 20
3 20 380 -1 209 -2 380 -3 380 -1 0 -7 -4 -13 -8z"/>
<path d="M946 401 c-4 -6 3 -20 15 -32 l21 -21 -7 24 c-9 30 -21 42 -29 29z"/>
<path d="M3168 114 c-3 -5 -4 -22 -2 -39 1 -16 3 -40 3 -52 2 -42 21 -23 20
20 0 46 -12 86 -21 71z"/>
<path d="M1074 51 c1 -17 4 -31 9 -31 10 0 9 32 -2 48 -5 9 -8 3 -7 -17z"/>
</g>
</svg>
